<svg width="21" height="37" viewBox="0 0 21 37" fill="none" xmlns="http://www.w3.org/2000/svg">
<path d="M5.51471 24.9044C6.37098 25.1877 7.30246 25.2438 8.2506 25.1926C8.42633 25.7015 8.62686 26.1976 8.84396 26.691C7.4129 26.4106 5.59557 26.3255 3.75713 27.0438C2.92417 27.3694 2.53618 28.2871 2.90017 29.0787C3.38553 30.1331 3.96725 31.3541 4.70038 32.4539C5.65885 34.0086 7.16555 35.1776 8.82764 35.7275C10.9658 36.435 13.2617 36.1331 15.1976 34.7495C15.9694 35.3299 16.7882 35.8615 17.6513 36.3367C18.4474 36.7677 19.4125 36.4895 19.8433 35.7737C20.2823 35.0394 20.0162 34.1004 19.2454 33.6759C12.4629 29.9428 8.28404 21.4278 11.4851 13.1127C11.8868 12.0767 12.2371 11.4403 12.5254 10.8214C14.1715 7.52757 13.3585 3.04541 10.7919 0.581009C10.161 -0.0255247 9.14857 -0.0261309 8.52365 0.568935C7.61889 1.42635 6.7373 2.40881 5.90607 3.48701C4.41556 5.41839 3.95348 7.93098 4.69521 10.0258C5.21416 11.5431 6.42618 12.8345 7.91586 13.6715C7.77189 14.1742 7.6486 14.6821 7.54539 15.194C6.23664 13.9432 4.67747 13.0817 3.06128 12.7654C2.18131 12.5973 1.33895 13.1451 1.17191 13.9753C0.893211 15.3648 0.699311 16.6049 0.672466 17.7687C0.538849 20.8538 2.40106 23.8741 5.51471 24.9044V24.9044Z" fill="#FEB13D"/>
</svg>
