<svg width="21" height="37" viewBox="0 0 21 37" fill="none" xmlns="http://www.w3.org/2000/svg">
<path d="M17.8021 12.7657C16.1931 13.0783 14.7318 13.9063 13.4193 15.1608C13.3162 14.6489 13.1929 14.141 13.0489 13.6385C14.5382 12.8022 15.6478 11.5467 16.1622 10.0417C16.9096 7.93041 16.4475 5.41742 14.9568 3.48562C14.1254 2.40708 13.2438 1.4245 12.339 0.566882C11.7145 -0.026873 10.7032 -0.0235524 10.0707 0.578828C7.51189 3.03611 6.68996 7.49444 8.33341 10.8077C8.8325 11.8942 8.92629 11.9459 9.37736 13.1103C12.3945 20.9481 8.94495 29.6464 1.61907 33.6791C0.848213 34.1037 0.582228 35.0429 1.02132 35.7772C1.45221 36.4933 2.41745 36.7712 3.21341 36.3405C4.07633 35.8654 4.89473 35.334 5.6666 34.7535C7.60936 36.145 9.87514 36.4423 12.0417 35.7255C13.7127 35.1726 15.2042 34.0165 16.1346 32.504C16.8974 31.3576 17.4791 30.1365 17.9645 29.082C18.3291 28.2888 17.939 27.3719 17.1074 27.0467C15.2741 26.3302 13.4609 26.4128 12.0197 26.695C12.2368 26.2012 12.4378 25.7046 12.6136 25.1954C14.2799 25.2865 15.7914 25.0325 17.264 23.9072C19.1131 22.5678 20.2521 20.2098 20.1474 17.8146C20.1197 16.6208 19.9705 15.3656 19.6916 13.976C19.5246 13.145 18.6812 12.5978 17.8021 12.7657V12.7657Z" fill="#FEB13D"/>
</svg>
